<svg width="41" height="32" viewBox="0 0 41 32" fill="none" xmlns="http://www.w3.org/2000/svg">
<path d="M0 4.5H40.5C40.5 2.01797 38.482 0 36 0H4.5C2.01797 0 0 2.01797 0 4.5ZM0 6.75V27C0 29.482 2.01797 31.5 4.5 31.5H36C38.482 31.5 40.5 29.482 40.5 27V6.75H0ZM4.5 26.2477C4.5 24.1734 6.18047 22.5 8.24766 22.5H16.5023C18.5766 22.5 20.25 24.1805 20.25 26.2477C20.25 26.6625 19.9125 27 19.4977 27H5.25234C4.8375 27 4.5 26.6625 4.5 26.2477ZM12.375 11.25C13.5685 11.25 14.7131 11.7241 15.557 12.568C16.4009 13.4119 16.875 14.5565 16.875 15.75C16.875 16.9435 16.4009 18.0881 15.557 18.932C14.7131 19.7759 13.5685 20.25 12.375 20.25C11.1815 20.25 10.0369 19.7759 9.19302 18.932C8.34911 18.0881 7.875 16.9435 7.875 15.75C7.875 14.5565 8.34911 13.4119 9.19302 12.568C10.0369 11.7241 11.1815 11.25 12.375 11.25ZM24.75 12.375C24.75 11.7563 25.2563 11.25 25.875 11.25H34.875C35.4938 11.25 36 11.7563 36 12.375C36 12.9937 35.4938 13.5 34.875 13.5H25.875C25.2563 13.5 24.75 12.9937 24.75 12.375ZM24.75 16.875C24.75 16.2563 25.2563 15.75 25.875 15.75H34.875C35.4938 15.75 36 16.2563 36 16.875C36 17.4937 35.4938 18 34.875 18H25.875C25.2563 18 24.75 17.4937 24.75 16.875ZM24.75 21.375C24.75 20.7563 25.2563 20.25 25.875 20.25H34.875C35.4938 20.25 36 20.7563 36 21.375C36 21.9937 35.4938 22.5 34.875 22.5H25.875C25.2563 22.5 24.75 21.9937 24.75 21.375Z" fill="#FF3A1A" fill-opacity="0.5"/>
</svg>
