<svg width="24" height="24" viewBox="0 0 24 24" fill="none" xmlns="http://www.w3.org/2000/svg">
<path d="M11.4128 0.121973L0.912848 4.62197C0.256598 4.90322 -0.109027 5.60635 0.0362854 6.3001C0.181598 6.99385 0.790973 7.5001 1.50347 7.5001V7.8751C1.50347 8.49854 2.00504 9.0001 2.62847 9.0001H21.3785C22.0019 9.0001 22.5035 8.49854 22.5035 7.8751V7.5001C23.216 7.5001 23.83 6.99854 23.9707 6.3001C24.1113 5.60166 23.7457 4.89854 23.0941 4.62197L12.5941 0.121973C12.2191 -0.0374023 11.7878 -0.0374023 11.4128 0.121973ZM6.00347 10.5001H3.00347V19.7017C2.97535 19.7157 2.94722 19.7345 2.9191 19.7532L0.669098 21.2532C0.12066 21.6188 -0.127777 22.3032 0.0644104 22.936C0.256598 23.5688 0.842535 24.0001 1.50347 24.0001H22.5035C23.1644 24.0001 23.7457 23.5688 23.9378 22.936C24.13 22.3032 23.8863 21.6188 23.3332 21.2532L21.0832 19.7532C21.055 19.7345 21.0269 19.7204 20.9988 19.7017V10.5001H18.0035V19.5001H16.1285V10.5001H13.1285V19.5001H10.8785V10.5001H7.87847V19.5001H6.00347V10.5001ZM12.0035 3.0001C12.4013 3.0001 12.7828 3.15813 13.0641 3.43944C13.3454 3.72074 13.5035 4.10227 13.5035 4.5001C13.5035 4.89792 13.3454 5.27945 13.0641 5.56076C12.7828 5.84206 12.4013 6.0001 12.0035 6.0001C11.6056 6.0001 11.2241 5.84206 10.9428 5.56076C10.6615 5.27945 10.5035 4.89792 10.5035 4.5001C10.5035 4.10227 10.6615 3.72074 10.9428 3.43944C11.2241 3.15813 11.6056 3.0001 12.0035 3.0001Z" fill="#FF3A1A"/>
</svg>
